<?xml version="1.0" standalone="no"?>
<!DOCTYPE svg PUBLIC "-//W3C//DTD SVG 20010904//EN"
 "http://www.w3.org/TR/2001/REC-SVG-20010904/DTD/svg10.dtd">
<svg version="1.0" xmlns="http://www.w3.org/2000/svg"
 width="960.000000pt" height="1280.000000pt" viewBox="0 0 960.000000 1280.000000"
 preserveAspectRatio="xMidYMid meet">
<metadata>
Created by potrace 1.15, written by Peter Selinger 2001-2017
</metadata>
<g transform="translate(0.000000,1280.000000) scale(0.100000,-0.100000)"
fill="#000000" stroke="none">
<path d="M4828 7800 l-3 -4729 -45 35 c-193 153 -489 225 -925 226 -216 0
-336 -17 -540 -76 -496 -143 -1027 -487 -1373 -891 -217 -253 -359 -524 -418
-795 -28 -129 -26 -365 5 -485 108 -422 469 -720 970 -801 111 -18 348 -20
481 -4 464 56 978 277 1365 587 409 328 657 699 757 1132 l23 96 2 3573 3
3572 28 0 c51 0 217 -30 329 -60 339 -90 708 -283 1034 -541 137 -108 403
-376 511 -514 357 -459 583 -1008 665 -1615 22 -167 25 -593 5 -775 -51 -455
-177 -928 -392 -1465 -85 -213 -134 -327 -293 -677 -58 -128 -108 -241 -112
-253 -6 -19 -2 -20 88 -20 l95 0 78 137 c637 1129 976 2310 932 3258 -26 565
-238 1173 -606 1735 -188 289 -380 522 -882 1070 -735 803 -905 1015 -1070
1332 -203 391 -297 742 -375 1393 -14 116 -28 227 -31 248 l-6 37 -149 0 -149
0 -2 -4730z"/>
</g>
</svg>
